<?xml version="1.0" encoding="UTF-8" standalone="no"?>
<!-- Created with Inkscape (http://www.inkscape.org/) -->

<svg
   width="132.99998mm"
   height="133mm"
   viewBox="0 0 132.99998 133"
   version="1.1"
   id="svg1"
   xmlns="http://www.w3.org/2000/svg"
   xmlns:svg="http://www.w3.org/2000/svg">
  <defs
     id="defs1" />
  <g
     id="layer1">
    <rect
       style="fill:#2176cc;fill-opacity:1;stroke-width:0.264583"
       id="rect1"
       width="128"
       height="128"
       x="5"
       y="5"
       rx="0" />
    <rect
       style="fill:#2176cc;fill-opacity:1;stroke-width:0.264583"
       id="rect2"
       width="128"
       height="128"
       x="0"
       y="0"
       rx="0" />
    <rect
       style="fill:#e8e7cb;fill-opacity:1;stroke-width:0.254248"
       id="rect3"
       width="123"
       height="123"
       x="2.5"
       y="2.5"
       rx="0" />
    <path
       style="fill:#ff7d6e;fill-opacity:1;stroke:#2176cc;stroke-width:2.5;stroke-dasharray:none;stroke-opacity:1"
       id="path3"
       d="M 90.240739,80.688847 73.561704,76.397781 60.571226,87.7049 59.498168,70.516182 44.73018,61.655596 60.746029,55.323451 64.609388,38.540189 75.580785,51.815425 92.73646,50.303385 83.501308,64.840077 Z"
       transform="matrix(1.1566446,0.28479619,-0.27226915,1.2156192,-0.64572278,-56.723823)" />
    <path
       style="fill:#2176cc;fill-opacity:1;stroke:#ff7d6e;stroke-width:2.5;stroke-dasharray:none;stroke-opacity:1"
       id="path4"
       d="M 94.592307,134.53384 70.877124,131.0691 54.578454,148.64089 50.545223,125.01575 28.796893,114.94477 50.019402,103.80837 52.876865,80.012378 70.026328,96.754846 93.540666,92.119088 82.917109,113.6029 Z"
       transform="matrix(0.81091407,0,0,0.82172101,-18.157042,0.52213292)" />
    <path
       style="fill:#fca6ac;fill-opacity:1;stroke:#2176cc;stroke-width:2.5;stroke-dasharray:none;stroke-opacity:1"
       id="path5"
       d="m 141.20837,145.39299 -12.79128,-14.57657 -19.2594,2.27347 9.91042,-16.66964 -8.11368,-17.614241 18.91626,4.274171 14.24487,-13.15967 1.78047,19.31122 16.9175,9.48112 -17.81587,7.66082 z"
       transform="translate(-41.392607,-23.74727)" />
  </g>
</svg>